<?xml version="1.0" encoding="UTF-8" standalone="no"?>
<svg xmlns:rdf="http://www.w3.org/1999/02/22-rdf-syntax-ns#" xmlns="http://www.w3.org/2000/svg" xml:space="preserve" version="1.1" xmlns:cc="http://creativecommons.org/ns#" xmlns:dc="http://purl.org/dc/elements/1.1/" width="57" height="59" viewBox="0 0 57 59">
  <g fill="none" fill-rule="evenodd" transform="translate(-1)">
    <rect width="48.904" height="58.4" x="1.703" y=".271" fill="#FFF" fill-rule="nonzero"/>
    <rect width="48" height="48" x="2" y=".986" fill="#EE2E24" fill-rule="nonzero"/>
    <path fill="#FFF" fill-rule="nonzero" d="M39.403191,34.940922 C41.6258287,32.0404704 42.9584241,28.3536229 42.9584241,24.2242222 C42.9584241,14.3959193 35.4827281,6.91693291 25.6544252,6.91693291 C15.8261223,6.91693291 8.34878112,14.3959193 8.34878112,24.2242222 C8.34878112,34.0508799 15.8261223,41.5282211 25.6544252,41.5282211 C29.1306897,41.5282211 32.3190477,40.5871784 34.9858838,38.9403536 L24.1622473,24.9842951 L24.1622473,33.7662638 L18.0717925,33.7662638 L18.0717925,14.6838257 L24.1622473,14.6838257 L24.1622473,23.4674396 L30.4353171,14.6838257 L37.3894912,14.6838257 L30.617932,23.8589923 L39.403191,34.940922 L39.403191,34.940922 Z"/>
    <rect width="48" height="7" x="2" y="51" fill="#F99B2A" fill-rule="nonzero"/>
    <path fill="#EE2E24" fill-rule="nonzero" d="M57.3664815,54.9164717 C57.3664815,56.573326 56.0233358,57.9164717 54.3664815,57.9164717 C52.7096273,57.9164717 51.3664815,56.573326 51.3664815,54.9164717 C51.3664815,53.2596176 52.7096273,51.9164717 54.3664815,51.9164717 C56.0233358,51.9164717 57.3664815,53.2596176 57.3664815,54.9164717 Z"/>
    <path fill="#FFF" fill-rule="nonzero" d="M56.8664815,54.9164718 C56.8664815,56.2971836 55.7471937,57.4164718 54.3664815,57.4164718 C52.9857691,57.4164718 51.8664815,56.2971836 51.8664815,54.9164718 C51.8664815,53.53576 52.9857691,52.4164718 54.3664815,52.4164718 C55.7471937,52.4164718 56.8664815,53.53576 56.8664815,54.9164718 L56.8664815,54.9164718 Z"/>
    <path fill="#EE2E24" fill-rule="nonzero" d="M53.0575077,54.9595964 L53.0575077,53.3466113 L53.7684452,53.3494371 C54.4763052,53.3522507 54.5286046,53.3537291 54.7075077,53.3759828 C54.9792927,53.40979 55.1422677,53.4804938 55.2888977,53.628208 C55.3629152,53.7027723 55.4131796,53.7744322 55.4576721,53.8688219 C55.518134,53.9970902 55.5396171,54.0908483 55.5394459,54.2257065 C55.5391584,54.4548918 55.4575452,54.6580564 55.2974627,54.8281116 C55.1314552,55.0044606 54.9442709,55.0924555 54.6608596,55.1273775 L54.6235859,55.1319704 L54.6959821,55.1679853 C54.8223815,55.2308651 54.8763246,55.2753858 55.0006746,55.4194565 C55.1191615,55.5567337 55.235049,55.7230815 55.4273777,56.0319565 C55.4980121,56.145394 55.5978165,56.3057065 55.6491652,56.3882065 C55.700514,56.4707065 55.7476271,56.5459409 55.7538609,56.555394 L55.7651959,56.5725816 L55.4469359,56.5725816 L55.1286752,56.5725816 L55.0857746,56.496019 C55.062179,56.4539096 55.0325977,56.4011753 55.0200384,56.3788315 C55.007479,56.3564878 54.9829759,56.312894 54.9655871,56.2819565 C54.7408534,55.8821185 54.7063702,55.8235911 54.6120796,55.6819565 C54.4632802,55.4584441 54.3392234,55.326379 54.2231327,55.2679019 C54.1232346,55.2175811 54.0275084,55.204118 53.7684452,55.2039535 L53.5762577,55.2038316 L53.5762577,55.8882066 L53.5762577,56.5725816 L53.3168827,56.5725816 L53.0575077,56.5725816 L53.0575077,54.9595965 L53.0575077,54.9595964 Z"/>
    <path fill="#FFF" fill-rule="nonzero" d="M54.4636552,54.7474449 C54.6013421,54.7289498 54.673209,54.709945 54.7571559,54.6698304 C54.7928015,54.6527969 54.815614,54.6356119 54.8540309,54.596853 C54.9440021,54.5060807 54.981529,54.4194266 54.9870421,54.2897143 C54.9897184,54.2267496 54.988094,54.2059126 54.9770571,54.1615893 C54.944034,54.0289787 54.8649827,53.9294738 54.744889,53.8693505 C54.670704,53.8322106 54.6127221,53.8158356 54.5042802,53.8013988 C54.4440065,53.7933746 54.3455252,53.790857 54.0027177,53.7885769 L53.5761552,53.7857398 L53.5761552,54.2743015 L53.5761552,54.7628633 L53.9839677,54.7599815 C54.3034971,54.7577236 54.4073402,54.7550097 54.4636552,54.7474449 Z"/>
  </g>
</svg>
